<svg xmlns="http://www.w3.org/2000/svg" width="32" height="32" viewBox="0 0 100 100">
  <!-- Wine drop -->
  <path d="M50 8 C50 8, 28 42, 28 58 C28 72, 38 82, 50 82 C62 82, 72 72, 72 58 C72 42, 50 8, 50 8Z"
        fill="none" stroke="#722F37" stroke-width="4" stroke-linecap="round" stroke-linejoin="round"/>
  <!-- Inner drop highlight -->
  <path d="M50 22 C50 22, 36 46, 36 58 C36 66, 42 74, 50 74 C58 74, 64 66, 64 58 C64 46, 50 22, 50 22Z"
        fill="none" stroke="#722F37" stroke-width="2.5" stroke-linecap="round" stroke-linejoin="round" opacity="0.4"/>
  <!-- Splash left -->
  <path d="M24 72 C20 65, 18 68, 16 62" fill="none" stroke="#722F37" stroke-width="3" stroke-linecap="round"/>
  <!-- Splash right -->
  <path d="M76 72 C80 65, 82 68, 84 62" fill="none" stroke="#722F37" stroke-width="3" stroke-linecap="round"/>
  <!-- Splash drops -->
  <circle cx="14" cy="58" r="2.5" fill="#722F37"/>
  <circle cx="86" cy="58" r="2.5" fill="#722F37"/>
  <!-- Ripple -->
  <ellipse cx="50" cy="88" rx="28" ry="4" fill="none" stroke="#722F37" stroke-width="2.5" stroke-linecap="round"/>
  <ellipse cx="50" cy="94" rx="18" ry="2.5" fill="none" stroke="#722F37" stroke-width="2" stroke-linecap="round" opacity="0.5"/>
</svg>
